<?xml version="1.0" encoding="utf-8"?>
<!-- Generator: Adobe Illustrator 15.1.0, SVG Export Plug-In . SVG Version: 6.00 Build 0)  -->
<!DOCTYPE svg PUBLIC "-//W3C//DTD SVG 1.1//EN" "http://www.w3.org/Graphics/SVG/1.1/DTD/svg11.dtd">
<svg version="1.1" id="Layer_1" xmlns="http://www.w3.org/2000/svg" xmlns:xlink="http://www.w3.org/1999/xlink" x="0px" y="0px"
	 width="180px" height="70px" viewBox="0 0 180 70" enable-background="new 0 0 180 70" xml:space="preserve">
<g>
	<path fill="#2DB2FF" d="M34.333,1.804C15.953,1.804,1,16.758,1,35.14C1,53.52,15.953,68.473,34.333,68.473
		c18.379,0,33.332-14.953,33.332-33.333C67.665,16.758,52.712,1.804,34.333,1.804z M34.333,62.014
		c-14.818,0-26.874-12.057-26.874-26.874c0-14.82,12.056-26.876,26.874-26.876S61.206,20.321,61.206,35.14
		C61.206,49.957,49.151,62.014,34.333,62.014z"/>
	<g>
		<path fill="#2DB2FF" stroke="#2DB2FF" stroke-width="0.8193" stroke-linecap="round" stroke-linejoin="round" d="M80.811,36.938
			V10.873h4.314v26.064H80.811L80.811,36.938z"/>
		<path fill="#2DB2FF" stroke="#2DB2FF" stroke-width="0.8193" stroke-linecap="round" stroke-linejoin="round" d="M90.344,27.481
			c0-5.432,3.863-9.886,10.191-9.886s10.189,4.455,10.189,9.886c0,5.393-3.861,9.925-10.189,9.925S90.344,32.874,90.344,27.481z
			 M106.247,27.481c0-3.321-2.015-6.252-5.712-6.252c-3.657,0-5.712,2.931-5.712,6.252c0,3.361,2.055,6.292,5.712,6.292
			C104.232,33.772,106.247,30.842,106.247,27.481z"/>
		<path fill="#2DB2FF" stroke="#2DB2FF" stroke-width="0.8193" stroke-linecap="round" stroke-linejoin="round" d="M116.852,32.522
			V21.62h-3.287v-3.556h3.287v-5.158h4.313v5.158h4.026v3.556h-4.026v9.887c0,1.29,0.657,2.266,1.892,2.266
			c0.82,0,1.562-0.352,1.889-0.703l1.027,3.125c-0.779,0.664-2.055,1.211-4.025,1.211C118.576,37.406,116.852,35.688,116.852,32.522
			z"/>
		<path fill="#2DB2FF" stroke="#2DB2FF" stroke-width="0.8193" stroke-linecap="round" stroke-linejoin="round" d="M128.686,27.481
			c0-5.471,4.191-9.886,10.067-9.886c5.959,0,9.739,4.298,9.739,10.238v1.016h-15.286c0.328,2.813,2.547,5.197,6.287,5.197
			c1.972,0,4.231-0.743,5.67-2.11l1.974,2.696c-2.015,1.798-4.932,2.774-8.055,2.774C133.082,37.406,128.686,33.46,128.686,27.481z
			 M138.712,20.955c-3.657,0-5.383,2.696-5.547,4.963h11.177C144.219,23.69,142.616,20.955,138.712,20.955z"/>
		<path fill="#2DB2FF" stroke="#2DB2FF" stroke-width="0.8193" stroke-linecap="round" stroke-linejoin="round" d="M151.902,34.437
			l1.974-2.931c1.397,1.368,4.149,2.618,6.698,2.618c2.589,0,3.943-1.016,3.943-2.501c0-3.712-11.998-1.055-11.998-8.324
			c0-3.087,2.795-5.705,7.808-5.705c3.37,0,5.917,1.133,7.685,2.618l-1.809,2.892c-1.191-1.25-3.369-2.267-5.876-2.267
			c-2.261,0-3.657,1.016-3.657,2.345c0,3.322,11.999,0.821,11.999,8.324c0,3.36-2.918,5.9-8.26,5.9
			C156.999,37.406,153.958,36.352,151.902,34.437z"/>
	</g>
	<g>
		<g>
			<path fill="#2DB2FF" stroke="#2DB2FF" stroke-width="0.5037" stroke-linecap="round" stroke-linejoin="round" d="M82.589,51.906
				v5.129h-1.497V43.725h1.497v1.437c0.699-0.978,1.896-1.677,3.253-1.677c2.535,0,4.291,1.916,4.291,5.05
				c0,3.112-1.756,5.069-4.291,5.069C84.525,53.604,83.387,52.964,82.589,51.906z M88.557,48.533c0-2.137-1.158-3.713-3.094-3.713
				c-1.177,0-2.355,0.699-2.874,1.537v4.352c0.519,0.838,1.697,1.557,2.874,1.557C87.399,52.266,88.557,50.669,88.557,48.533z"/>
			<path fill="#2DB2FF" stroke="#2DB2FF" stroke-width="0.5037" stroke-linecap="round" stroke-linejoin="round" d="M98.133,53.363
				v-1.098c-0.777,0.877-1.896,1.336-3.193,1.336c-1.616,0-3.353-1.098-3.353-3.192c0-2.175,1.716-3.173,3.353-3.173
				c1.317,0,2.416,0.418,3.193,1.297v-1.736c0-1.277-1.037-2.016-2.435-2.016c-1.158,0-2.097,0.398-2.954,1.337l-0.699-1.038
				c1.038-1.077,2.275-1.598,3.852-1.598c2.057,0,3.732,0.92,3.732,3.254v6.627H98.133L98.133,53.363z M98.133,51.327v-1.836
				c-0.578-0.778-1.597-1.179-2.635-1.179c-1.417,0-2.395,0.879-2.395,2.097c0,1.237,0.978,2.116,2.395,2.116
				C96.536,52.525,97.555,52.126,98.133,51.327z"/>
			<path fill="#2DB2FF" stroke="#2DB2FF" stroke-width="0.5037" stroke-linecap="round" stroke-linejoin="round" d="M101.842,53.363
				v-9.641h1.497v1.536c0.778-0.997,1.896-1.756,3.214-1.756v1.537c-0.181-0.021-0.359-0.04-0.58-0.04
				c-0.938,0-2.195,0.758-2.634,1.536v6.825h-1.497V53.363z"/>
			<path fill="#2DB2FF" stroke="#2DB2FF" stroke-width="0.5037" stroke-linecap="round" stroke-linejoin="round" d="M114.453,53.363
				v-1.098c-0.778,0.877-1.896,1.336-3.193,1.336c-1.617,0-3.354-1.098-3.354-3.192c0-2.175,1.717-3.173,3.354-3.173
				c1.317,0,2.415,0.418,3.193,1.297v-1.736c0-1.277-1.038-2.016-2.436-2.016c-1.158,0-2.096,0.398-2.953,1.337l-0.699-1.038
				c1.037-1.077,2.275-1.598,3.854-1.598c2.055,0,3.731,0.92,3.731,3.254v6.627H114.453L114.453,53.363z M114.453,51.327v-1.836
				c-0.579-0.778-1.598-1.179-2.635-1.179c-1.418,0-2.396,0.879-2.396,2.097c0,1.237,0.978,2.116,2.396,2.116
				C112.855,52.525,113.874,52.126,114.453,51.327z"/>
			<path fill="#2DB2FF" stroke="#2DB2FF" stroke-width="0.5037" stroke-linecap="round" stroke-linejoin="round" d="M123.229,51.348
				v-6.307h-1.597v-1.316h1.597v-2.636h1.519v2.636h1.955v1.316h-1.955v5.986c0,0.72,0.319,1.238,0.958,1.238
				c0.438,0,0.818-0.199,1.018-0.42l0.439,1.139c-0.38,0.359-0.919,0.617-1.775,0.617C123.947,53.604,123.229,52.784,123.229,51.348
				z"/>
			<path fill="#2DB2FF" stroke="#2DB2FF" stroke-width="0.5037" stroke-linecap="round" stroke-linejoin="round" d="M128.236,48.533
				c0-2.795,1.836-5.051,4.771-5.051s4.771,2.256,4.771,5.051c0,2.794-1.836,5.068-4.771,5.068
				C130.073,53.602,128.236,51.327,128.236,48.533z M136.2,48.533c0-1.956-1.138-3.713-3.193-3.713
				c-2.055,0-3.192,1.757-3.192,3.713c0,1.976,1.138,3.732,3.192,3.732C135.062,52.266,136.2,50.509,136.2,48.533z"/>
			<path fill="#2DB2FF" stroke="#2DB2FF" stroke-width="0.5037" stroke-linecap="round" stroke-linejoin="round" d="M146.794,53.363
				v-1.438c-0.719,0.979-1.896,1.677-3.253,1.677c-2.516,0-4.291-1.916-4.291-5.049c0-3.094,1.775-5.07,4.291-5.07
				c1.297,0,2.475,0.64,3.253,1.697v-5.13h1.497v13.313H146.794z M146.794,50.729v-4.351c-0.519-0.839-1.696-1.558-2.874-1.558
				c-1.956,0-3.113,1.598-3.113,3.732s1.157,3.713,3.113,3.713C145.098,52.266,146.275,51.566,146.794,50.729z"/>
			<path fill="#2DB2FF" stroke="#2DB2FF" stroke-width="0.5037" stroke-linecap="round" stroke-linejoin="round" d="M149.924,48.533
				c0-2.795,1.836-5.051,4.77-5.051c2.935,0,4.771,2.256,4.771,5.051c0,2.794-1.837,5.068-4.771,5.068
				C151.76,53.602,149.924,51.327,149.924,48.533z M157.887,48.533c0-1.956-1.138-3.713-3.193-3.713
				c-2.055,0-3.192,1.757-3.192,3.713c0,1.976,1.138,3.732,3.192,3.732C156.749,52.266,157.887,50.509,157.887,48.533z"/>
			<path fill="#2DB2FF" stroke="#2DB2FF" stroke-width="0.5037" stroke-linecap="round" stroke-linejoin="round" d="M160.678,52.086
				l0.758-1.078c0.64,0.739,1.856,1.379,3.174,1.379c1.478,0,2.295-0.699,2.295-1.658c0-2.334-5.967-0.896-5.967-4.471
				c0-1.518,1.277-2.773,3.572-2.773c1.656,0,2.814,0.619,3.572,1.396l-0.698,1.038c-0.579-0.698-1.616-1.218-2.874-1.218
				c-1.316,0-2.136,0.658-2.136,1.518c0,2.096,5.968,0.719,5.968,4.471c0,1.617-1.298,2.914-3.771,2.914
				C162.973,53.604,161.654,53.104,160.678,52.086z"/>
		</g>
	</g>
	<path fill="#069DD8" d="M25.287,49.57"/>
	<polygon fill="#E71C88" stroke="#E71C88" stroke-width="0.9227" stroke-linecap="round" stroke-linejoin="round" points="
		34.413,26.996 45.552,36.544 45.552,51.98 37.594,51.98 37.594,44.818 34.413,44.818 34.252,44.818 31.068,44.818 31.068,51.98 
		23.112,51.98 23.112,36.544 34.252,26.996 	"/>
	<path fill="#2DB2FF" d="M51.73,30.798L36.133,16.952c-1.037-0.92-2.723-0.92-3.76,0L16.938,30.639c-1.169,1.035-1.276,2.829-0.24,4
		c0.538,0.604,1.31,0.95,2.12,0.95c0.69,0,1.356-0.252,1.875-0.71l13.559-12.02L47.97,35.036c0.52,0.461,1.187,0.714,1.877,0.714
		c0.81,0,1.583-0.347,2.12-0.953c0.502-0.564,0.754-1.292,0.71-2.049C52.633,31.994,52.296,31.302,51.73,30.798z"/>
</g>
</svg>
